<?xml version="1.0" encoding="utf-8"?>
<!-- Generator: Adobe Illustrator 19.2.0, SVG Export Plug-In . SVG Version: 6.00 Build 0)  -->
<svg version="1.1" id="dislike" xmlns="http://www.w3.org/2000/svg" xmlns:xlink="http://www.w3.org/1999/xlink" x="0px" y="0px"
	 viewBox="0 0 212 160.5352" enable-background="new 0 0 212 160.5352" xml:space="preserve">
<g>
	<path fill="#EB4548" d="M199.8047,71.5392c-0.414,0-2.1327-0.0196-4.5392-0.0508c1.5625-2.3128,2.8124-5.4416,2.8124-9.5468
		c0-7.3988-5.1132-11.2112-9.4568-12.4376c1.488-2.1604,2.5389-5.0588,2.5389-8.844c0-8.5936-6.496-14.1444-16.5469-14.1444
		c-0.4724,0-1.0704-0.0312-1.754-0.09c2.1956-1.8476,3.7072-4.2888,3.7072-7.5156c0-8.9181-6.1368-14.91-15.2736-14.91h-54.652
		c-0.3127,0-0.6252,0.0352-0.93,0.1092C104.9883,4.2812,88.5623,8.254,79.4415,14.91H48V4c0-2.2108-1.7893-4-4-4H4
		C1.7891,0,0,1.7892,0,4v96c0,2.2108,1.7891,4,4,4h40c2.2107,0,4-1.7892,4-4V88.1328h28.7771
		c5.8128,6.5704,30.4808,33.9024,43.6484,39.5428c6.1136,2.6212,9.176,9.5784,12.1368,16.3048
		c3.004,6.828,5.84,13.2736,11.9457,15.7304c1.4683,0.59,2.7967,0.8244,3.9763,0.8244c2.086,0,3.7188-0.7304,4.8632-1.5
		c4.8048-3.25,7.2424-11.672,7.2424-25.0352c0-7.3281-3.2032-12.1328-7.2619-18.2188c-1.7813-2.672-4.16-6.4844-6.4025-10.078
		c-0.9175-1.4728-1.746-2.7968-2.484-3.9688l54.8592-2.4024c0.3436-0.0156,0.6836-0.074,1.0116-0.1756
		C204.6523,97.8084,212,93.4376,212,85.6092C212,76.504,203.9451,71.5392,199.8047,71.5392z M24,92c-4.4101,0-8-3.59-8-8
		c0-4.41,3.5899-8,8-8c4.4099,0,8,3.59,8,8C32,88.41,28.4099,92,24,92z M198.336,91.3672l-61.2893,2.6836
		c-1.5,0.0664-2.8396,0.9688-3.4648,2.336c-0.6212,1.3672-0.4256,2.9688,0.508,4.1484c0.8436,1.0624,3.6092,5.492,6.0508,9.4064
		c2.2848,3.66,4.7148,7.5503,6.5313,10.2772c3.996,5.996,5.9179,9.086,5.9179,13.7812c0,10.918-1.9299,17.1952-3.7228,18.4064
		c-0.1172,0.082-0.4024,0.2732-1.3751-0.1172c-3.0781-1.2384-5.2773-6.2384-7.6093-11.5312
		c-3.418-7.7661-7.2928-16.5704-16.3084-20.4336c-10.7852-4.6252-33.9492-29.586-41.9652-38.8128
		c-0.7576-0.8748-1.8592-1.3788-3.0192-1.3788H48V22.91h32.8007c0.922,0,1.8164-0.32,2.5313-0.902
		c6.7071-5.4844,21.1015-9.3244,23.8007-10.008h54.16c3.3164,0,7.2736,1.1992,7.2736,6.91c0,2.1328-6.7696,4.5392-12.3748,5.1096
		c-1.9808,0.2032-3.512,1.824-3.594,3.8124c-0.086,1.9844,1.3008,3.7344,3.254,4.0976c1.41,0.2656,13.918,2.586,18.7616,2.586
		c3.8984,0,8.5469,1.0664,8.5469,6.1444c0,4.2656-2.2693,5.6836-3.2813,6.1056l-10.3867-0.25
		c-2.3125-0.09-3.8945,1.5468-4.0821,3.6444c-0.1872,2.1016,1.2892,3.9844,3.3712,4.3088l16.5549,2.5468
		c0.7927,0.0588,4.7419,0.5624,4.7419,4.926c0,4.5544-2.7188,6.7616-3.832,7.4684l-15.1524,1.7816
		c-2.0935,0.246-3.6364,2.074-3.5312,4.1796c0.1097,2.1016,1.832,3.7616,3.9377,3.7927c0,0,26.4139,0.3441,28.0195,0.3557
		C199.5623,79.5272,204,80.9804,204,85.6092C204,88.8672,199.6875,90.832,198.336,91.3672z"/>
	<path fill="#FE7D71" d="M199.5195,79.5196C197.9139,79.508,171.5,79.1639,171.5,79.1639c-2.1057-0.0311-3.828-1.6911-3.9377-3.7927
		c-0.1052-2.1056,1.4377-3.9336,3.5312-4.1796l15.1524-1.7816c1.1132-0.7068,3.832-2.914,3.832-7.4684
		c0-4.3636-3.9492-4.8672-4.7419-4.926l-16.5549-2.5468c-2.082-0.3244-3.5584-2.2072-3.3712-4.3088
		c0.1876-2.0976,1.7696-3.7344,4.0821-3.6444l10.3867,0.25c1.012-0.422,3.2813-1.84,3.2813-6.1056
		c0-5.078-4.6485-6.1444-8.5469-6.1444c-4.8436,0-17.3516-2.3204-18.7616-2.586c-1.9532-0.3632-3.34-2.1132-3.254-4.0976
		c0.082-1.9884,1.6132-3.6092,3.594-3.8124c5.6052-0.5704,12.3748-2.9768,12.3748-5.1096c0-5.7108-3.9572-6.91-7.2736-6.91h-54.16
		c-2.6992,0.6836-17.0936,4.5236-23.8007,10.008c-0.7149,0.582-1.6093,0.902-2.5313,0.902H48v57.2228h30.5899
		c1.16,0,2.2616,0.504,3.0192,1.3788c8.016,9.2268,31.18,34.1876,41.9652,38.8128c9.0156,3.8632,12.8904,12.6675,16.3084,20.4336
		c2.332,5.2928,4.5312,10.2928,7.6093,11.5312c0.9727,0.3904,1.2579,0.1992,1.3751,0.1172
		c1.7929-1.2112,3.7228-7.4884,3.7228-18.4064c0-4.6952-1.9219-7.7852-5.9179-13.7812c-1.8165-2.7269-4.2465-6.6172-6.5313-10.2772
		c-2.4416-3.9144-5.2072-8.344-6.0508-9.4064c-0.9336-1.1796-1.1292-2.7812-0.508-4.1484c0.6252-1.3672,1.9648-2.2696,3.4648-2.336
		l61.2893-2.6836c1.3515-0.5352,5.664-2.5,5.664-5.758C204,80.9804,199.5623,79.5272,199.5195,79.5196z"/>
	<path fill="#FFDC82" d="M24,76c-4.4101,0-8,3.59-8,8c0,4.41,3.5899,8,8,8c4.4099,0,8-3.59,8-8C32,79.59,28.4099,76,24,76z"/>
</g>
</svg>
