<?xml version="1.0" encoding="utf-8"?>
<!-- Generator: Adobe Illustrator 19.2.0, SVG Export Plug-In . SVG Version: 6.00 Build 0)  -->
<svg version="1.1" id="like" xmlns="http://www.w3.org/2000/svg" xmlns:xlink="http://www.w3.org/1999/xlink" x="0px" y="0px"
	 viewBox="0 0 212 160.532" enable-background="new 0 0 212 160.532" xml:space="preserve">
<g>
	<path fill="#50CCD3" d="M200.3123,61.3756c-0.328-0.1016-0.668-0.16-1.0116-0.1757l-54.8592-2.4023
		c0.738-1.172,1.5665-2.496,2.484-3.9688c2.2425-3.5936,4.6212-7.406,6.4025-10.078c4.0587-6.086,7.2619-10.8908,7.2619-18.2188
		c0-13.3632-2.4376-21.7812-7.2424-25.0312c-1.7928-1.2108-4.7852-2.3088-8.8395-0.6796
		c-6.1057,2.4568-8.9417,8.9024-11.9457,15.7304c-2.9608,6.7264-6.0232,13.6836-12.1368,16.3048
		c-13.1676,5.6404-37.8356,32.9724-43.6484,39.5428H48v8h30.5899c1.16,0,2.2616-0.504,3.0192-1.3788
		c8.016-9.2268,31.18-34.1876,41.9652-38.8128c9.0156-3.8632,12.8904-12.6676,16.3084-20.4336
		c2.332-5.2928,4.5312-10.2928,7.6093-11.5312c0.9651-0.3864,1.2619-0.1992,1.3751-0.1132
		c1.7929,1.2108,3.7228,7.4884,3.7228,18.4024c0,4.6952-1.9219,7.7852-5.9179,13.7812c-1.8165,2.7268-4.2465,6.6172-6.5313,10.2772
		c-2.4416,3.9144-5.2072,8.344-6.0508,9.4064c-0.9336,1.1796-1.1292,2.7812-0.508,4.1484c0.6252,1.3672,1.9648,2.2696,3.4648,2.336
		l61.2893,2.6836c1.3711,0.5428,5.664,2.508,5.664,5.758c0,4.5936-4.3673,6.0584-4.1993,6.07
		c-1.8436,0-28.3007,0.3752-28.3007,0.3752c-2.1057,0.0312-3.828,1.6912-3.9377,3.7928c-0.1052,2.1056,1.4377,3.9336,3.5312,4.1796
		l15.1448,1.7776c1.1524,0.7384,3.8396,2.9452,3.8396,7.4724c0,4.0392-3.3436,4.7932-5.0664,4.9612l-16.2304,2.5116
		c-2.082,0.3244-3.5584,2.2072-3.3712,4.3087c0.1876,2.0977,1.7776,3.6953,4.0821,3.6445l10.3791-0.25
		c1.0352,0.4295,3.2889,1.8556,3.2889,6.1055c0,5.0821-4.6485,6.1485-8.5469,6.1485c-4.8436,0-17.3516,2.3164-18.7616,2.582
		c-1.9532,0.3632-3.3435,2.1132-3.258,4.1015c0.086,1.9881,1.6212,3.6133,3.6016,3.8085
		c5.5704,0.5548,12.3712,3.0196,12.3712,5.1096c0,5.7108-3.9572,6.91-7.2736,6.91h-54.1716
		c-5.0196-1.246-17.836-5.1408-23.7891-10.0081c-0.7149-0.5819-1.6093-0.9019-2.5313-0.9019H48v8h31.4415
		c9.1208,6.656,25.5468,10.6288,26.2692,10.8008c0.3048,0.074,0.6173,0.1092,0.93,0.1092h54.652
		c9.1368,0,15.2736-5.992,15.2736-14.91c0-3.2228-1.5116-5.6644-3.7032-7.512c0.6836-0.0584,1.2776-0.0896,1.75-0.0896
		c10.0509,0,16.5469-5.5548,16.5469-14.1485c0-3.8007-1.0585-6.7071-2.5545-8.8711c4.488-1.2969,9.4724-5.1056,9.4724-12.4104
		c0-4.1052-1.2499-7.234-2.8124-9.5468c2.4065-0.0312,4.1252-0.0508,4.5392-0.0508c4.1404,0,12.1953-4.9648,12.1953-14.07
		C212,67.0944,204.6523,62.7236,200.3123,61.3756z"/>
	<path fill="#7BE5E4" d="M80.8007,137.622c0.922,0,1.8164,0.32,2.5313,0.9019c5.9531,4.8673,18.7695,8.7621,23.7891,10.0081h54.1716
		c3.3164,0,7.2736-1.1992,7.2736-6.91c0-2.09-6.8008-4.5548-12.3712-5.1096c-1.9804-0.1952-3.5156-1.8204-3.6016-3.8085
		c-0.0855-1.9883,1.3048-3.7383,3.258-4.1015c1.41-0.2656,13.918-2.582,18.7616-2.582c3.8984,0,8.5469-1.0664,8.5469-6.1485
		c0-4.2499-2.2537-5.676-3.2889-6.1055l-10.3791,0.25c-2.3045,0.0508-3.8945-1.5468-4.0821-3.6445
		c-0.1872-2.1015,1.2892-3.9843,3.3712-4.3087l16.2304-2.5116c1.7228-0.168,5.0664-0.922,5.0664-4.9612
		c0-4.5272-2.6872-6.734-3.8396-7.4724l-15.1448-1.7776c-2.0935-0.246-3.6364-2.074-3.5312-4.1796
		c0.1097-2.1016,1.832-3.7616,3.9377-3.7928c0,0,26.4571-0.3752,28.3007-0.3752c-0.168-0.0116,4.1993-1.4764,4.1993-6.07
		c0-3.25-4.2929-5.2152-5.664-5.758l-61.2893-2.6836c-1.5-0.0664-2.8396-0.9688-3.4648-2.336
		c-0.6212-1.3672-0.4256-2.9688,0.508-4.1484c0.8436-1.0624,3.6092-5.492,6.0508-9.4064c2.2848-3.66,4.7148-7.5504,6.5313-10.2772
		c3.996-5.996,5.9179-9.086,5.9179-13.7812c0-10.914-1.9299-17.1916-3.7228-18.4024c-0.1132-0.086-0.41-0.2732-1.3751,0.1132
		c-3.0781,1.2384-5.2773,6.2384-7.6093,11.5312c-3.418,7.766-7.2928,16.5704-16.3084,20.4336
		c-10.7852,4.6252-33.9492,29.586-41.9652,38.8128c-0.7576,0.8748-1.8592,1.3788-3.0192,1.3788H48v57.2228H80.8007z"/>
	<path fill="#3BABB7" d="M48,80.3992v-8V60.532c0-2.2108-1.7893-4-4-4H4c-2.2109,0-4,1.7892-4,4v96c0,2.2108,1.7891,4,4,4h40
		c2.2107,0,4-1.7892,4-4v-10.91v-8V80.3992z M24,84.532c-4.4101,0-8-3.59-8-8c0-4.41,3.5899-8,8-8c4.4099,0,8,3.59,8,8
		C32,80.942,28.4099,84.532,24,84.532z"/>
	<path fill="#7BE5E4" d="M24,68.532c-4.4101,0-8,3.59-8,8c0,4.41,3.5899,8,8,8c4.4099,0,8-3.59,8-8
		C32,72.122,28.4099,68.532,24,68.532z"/>
</g>
</svg>
